<?xml version="1.0" encoding="UTF-8"?>
<svg id="Layer_1" data-name="Layer 1" xmlns="http://www.w3.org/2000/svg" viewBox="0 0 566.93 566.93">
  <defs>
    <style>
      .cls-1 {
        fill: #231f20;
      }
    </style>
  </defs>
  <path class="cls-1" d="M17.71,267.41C5.9,267.41,0,273.32,0,285.13c0,5.17,1.66,9.6,4.98,13.28,3.32,3.7,7.56,5.54,12.73,5.54s9.42-1.84,12.74-5.54c3.32-3.68,4.98-8.11,4.98-13.28,0-11.81-5.91-17.72-17.72-17.72ZM52.04,129l-35.43,35.43,13.28,14.4,36.54-35.44-14.39-14.39Zm-19.93,259.1l-13.29,14.4,35.43,35.43,14.4-14.39-36.54-35.44Zm21.04-156.12c-11.82,0-17.72,5.91-17.72,17.71s5.9,17.72,17.72,17.72,17.71-5.9,17.71-17.72-5.91-17.71-17.71-17.71Zm0,71.97c-11.82,0-17.72,5.91-17.72,17.72s5.9,17.71,17.72,17.71,17.71-5.9,17.71-17.71-5.91-17.72-17.71-17.72Zm55.36-31v19.93H457.31v-19.93H108.51Zm404.16-43.19c-11.82,0-17.72,5.92-17.72,17.72s5.9,17.72,17.72,17.72,17.72-5.91,17.72-17.72-5.92-17.72-17.72-17.72Zm0,71.98c-11.82,0-17.72,5.91-17.72,17.71s5.9,17.72,17.72,17.72,17.72-5.9,17.72-17.72-5.92-17.71-17.72-17.71Zm-2.22-171.63l-13.28,14.39,35.43,34.33,14.4-14.4-36.55-34.32Zm24.36,257.99l-35.43,34.33,13.29,14.4,36.54-34.33-14.4-14.4Zm14.4-122.9c-5.17,0-9.6,1.66-13.29,4.98-3.7,3.32-5.53,7.57-5.53,12.73s1.83,9.6,5.53,13.29c3.69,3.7,8.12,5.54,13.29,5.54s9.41-1.84,12.73-5.54c3.33-3.69,4.99-8.12,4.99-13.29,0-11.8-5.92-17.71-17.72-17.71Z"/>
  <polygon class="cls-1" points="538.14 195.44 523.74 209.83 502.43 188.08 455.09 236.41 106.3 236.41 57.34 189.41 37.64 208.72 24.36 195.44 79.72 138.97 94.12 153.36 71.83 175.21 114.05 216.48 446.23 215.37 488.61 173.98 470.59 155.58 484.99 141.18 538.14 195.44"/>
  <polygon class="cls-1" points="540.35 371.5 487.2 425.75 472.81 411.36 490.83 392.96 448.45 351.56 116.26 350.46 74.04 391.72 96.33 413.57 81.94 427.97 26.57 371.5 39.86 358.21 60.06 378.01 108.51 330.53 457.31 331.63 504.59 378.92 525.96 357.1 540.35 371.5"/>
</svg>