<?xml version="1.0" encoding="UTF-8"?>
<svg id="Layer_1" data-name="Layer 1" xmlns="http://www.w3.org/2000/svg" viewBox="0 0 566.93 566.93">
  <defs>
    <style>
      .cls-1 {
        fill: #231f20;
      }
    </style>
  </defs>
  <path class="cls-1" d="M8.82,279.6c5.88,0,8.82,2.95,8.82,8.82s-2.95,8.82-8.82,8.82-8.82-2.93-8.82-8.82,2.93-8.82,8.82-8.82Zm17.65-17.65c5.88,0,8.82,2.95,8.82,8.82s-2.95,8.82-8.82,8.82-8.82-2.93-8.82-8.82,2.93-8.82,8.82-8.82Zm0,36.4c5.88,0,8.82,2.95,8.82,8.82s-2.95,8.82-8.82,8.82-8.82-2.93-8.82-8.82,2.93-8.82,8.82-8.82Zm8.82-19.85h490.82v20.96H35.3v-20.96ZM282.36,98.72l18.75,18.75v-25.37h-4.41v13.24l-14.34-13.24h-4.41l-13.24,13.24v-13.24h-5.51v25.37l18.75-18.75v48.53l-77.21,83.83-80.52-86.03L37.5,233.28H362.88l-80.52-86.03v-48.53ZM120.22,421.89l82.72-88.24H37.5l82.72,88.24Zm-36.4-208.46l36.4-38.6,36.4,38.6H83.83Zm36.4,178.68l-36.4-38.6h72.8l-36.4,38.6Zm242.65-58.46H202.95l79.41,86.03v48.53l-17.65-18.75v25.37h4.41v-13.24l13.24,13.24h5.51l13.24-13.24v13.24h5.51v-25.37l-18.75,18.75v-48.53l77.21-83.83,80.52,86.03,82.72-88.24h-165.45Zm-119.12-120.22l36.4-38.6,36.4,38.6h-72.8Zm41.91,178.68l-36.4-38.6h72.8l-36.4,38.6Zm77.21-158.83h165.45l-82.72-88.24-82.72,88.24Zm46.32-19.85l36.4-38.6,36.4,38.6h-72.8Zm72.8,140.08l-36.4,38.6-36.4-38.6h72.8Zm58.46-91.55c5.88,0,8.82,2.95,8.82,8.82s-2.95,8.82-8.82,8.82-8.82-2.93-8.82-8.82,2.93-8.82,8.82-8.82Zm8.82,45.22c0,5.89-2.95,8.82-8.82,8.82s-8.82-2.93-8.82-8.82c0-6.62,2.93-9.93,8.82-9.93s8.82,3.31,8.82,9.93Zm8.82-27.57c5.88,0,8.82,2.95,8.82,8.82s-2.95,8.82-8.82,8.82-8.82-2.93-8.82-8.82,2.93-8.82,8.82-8.82Z"/>
</svg>