<?xml version="1.0" encoding="UTF-8"?>
<svg id="Layer_1" data-name="Layer 1" xmlns="http://www.w3.org/2000/svg" viewBox="0 0 566.93 566.93">
  <defs>
    <style>
      .cls-1 {
        fill: #231f20;
      }
    </style>
  </defs>
  <path class="cls-1" d="M566.93,163.56l-106.88,106.88L297.26,106.7,403.37,0h-28.74l-91.59,92.4L191.18,0h-27.62l105.71,106.29L106.72,270.28,0,163.56v27.62l92.83,93.11L0,377.95v27.63l106.75-107.33,162.5,162.99-105.69,105.69h28.73l91.17-91.44,91.17,91.44h28.74l-105.7-105.7,162.51-162.98,106.75,107.33v-27.63l-92.98-93.52,92.98-93.25v-27.62ZM283.47,447.03L120.68,284.24,283.47,120.56l162.78,163.68-162.78,162.79Z"/>
</svg>