<?xml version="1.0" encoding="UTF-8"?>
<svg id="Layer_1" data-name="Layer 1" xmlns="http://www.w3.org/2000/svg" viewBox="0 0 566.93 566.93">
  <defs>
    <style>
      .cls-1 {
        fill: #231f20;
      }
    </style>
  </defs>
  <path class="cls-1" d="M552.56,165.77c-9.58-35.37-21.38-62.81-35.37-82.33-14-19.52-28-36.1-41.99-49.73-14-13.63-25.79-22.66-35.36-27.08L425.47,0l-134.83,248.65V0h-15.47l1.11,248.65L141.45,0c-3.69,2.21-8.66,5.35-14.92,9.39-6.26,4.06-17.68,13.82-34.26,29.29-16.57,15.47-30.94,32.98-43.1,52.49-12.15,19.53-23.39,46.42-33.7,80.68C5.15,206.1,0,243.13,0,282.91,0,326.39,4.78,365.8,14.36,401.16c9.57,35.36,21.36,62.82,35.37,82.33,13.99,19.53,27.99,36.11,41.99,49.73,13.99,13.64,25.78,22.66,35.37,27.08l14.36,6.63,134.83-248.66v248.66h14.36v-248.66l134.83,248.66c3.68-2.21,8.65-5.34,14.92-9.4,6.25-4.04,17.68-13.81,34.26-29.28,16.57-15.47,30.94-33.16,43.1-53.05,12.15-19.89,23.38-46.97,33.7-81.22,10.31-34.26,15.48-71.28,15.48-111.07,0-42.72-4.8-81.78-14.37-117.14ZM121.56,531.56c-14.74-10.31-26.9-22.1-36.47-35.36-19.16-22.83-33.89-49.35-44.2-79.57-14.01-37.57-21-82.14-21-133.72,0-46.41,6.99-88.41,21-125.98,9.57-29.47,24.31-56.36,44.2-80.68,11.05-13.99,23.21-26.88,36.47-38.68v493.99Zm145.88-240.91l-125.99,234.28V41.99l125.99,234.29h-107.2v14.37h107.2Zm158.03,234.28l-127.09-234.28h109.41v-14.37h-109.41L425.47,41.99v482.94Zm100.57-116.03c-11.8,32.42-26.53,59.67-44.21,81.77-12.53,15.48-24.69,28.01-36.47,37.58V34.26c67.78,51.57,101.67,134.46,101.67,248.65,0,47.16-7,89.15-20.99,125.99Zm-269.65-27.63c-5.91,0-8.85,2.95-8.85,8.84s2.94,8.84,8.85,8.84,8.84-2.94,8.84-8.84-2.95-8.84-8.84-8.84Zm2.21-213.29c-5.91,0-8.85,2.95-8.85,8.84s2.94,8.84,8.85,8.84,8.84-2.94,8.84-8.84-2.95-8.84-8.84-8.84Zm50.83,0c-5.9,0-8.84,2.95-8.84,8.84s2.94,8.84,8.84,8.84,8.84-2.94,8.84-8.84-2.95-8.84-8.84-8.84Zm0,213.29c-5.9,0-8.84,2.95-8.84,8.84s2.94,8.84,8.84,8.84,8.84-2.94,8.84-8.84-2.95-8.84-8.84-8.84Z"/>
</svg>