<?xml version="1.0" encoding="UTF-8"?>
<svg id="Layer_1" data-name="Layer 1" xmlns="http://www.w3.org/2000/svg" viewBox="0 0 566.93 566.93">
  <defs>
    <style>
      .cls-1 {
        fill: #231f20;
      }
    </style>
  </defs>
  <path class="cls-1" d="M545.11,177.38v212.18h19.79V177.38h-19.79Zm-35.18,0v212.18h19.79V177.38h-19.79Zm-35.18,0v212.18h19.79V177.38h-19.79Zm-402.37,0v212.18h19.79V177.38h-19.79Zm-35.18,0v212.18h19.79V177.38h-19.79Zm-35.18,0v212.18H21.81V177.38H2.02Z"/>
  <path class="cls-1" d="M283.46,56.45L107.56,282.92l175.9,227.57,175.9-226.47L283.46,56.45Zm0,30.78l65.63,85.75H217.46l66-85.75Zm0,392.48l-65.63-85.75h131.63l-66,85.75Zm75.86-98.56v-26.77h-9.9v29.68h-25.28v-29.68h-9.9v29.68h-25.28v-29.68h-11v29.68h-25.28v-29.68h-9.9v29.68h-25.28v-29.68h-9.9v26.21l-29.68-38.78v-117.45l29.68-38.56v26.76h9.9v-29.69h25.28v29.69h9.9v-29.69h25.28v29.69h11v-29.69h25.28v29.69h9.9v-29.69h25.28v29.69h9.9v-26.22l29.68,38.78v117.47l-29.68,38.56Z"/>
</svg>