<?xml version="1.0" encoding="UTF-8"?>
<svg id="Layer_1" data-name="Layer 1" xmlns="http://www.w3.org/2000/svg" viewBox="0 0 566.93 566.93">
  <defs>
    <style>
      .cls-1 {
        fill: #231f20;
      }
    </style>
  </defs>
  <path class="cls-1" d="M508.91,212.19l-42-42-14.37,14.37,28.74,28.73-44.39,54.06L296.72,97.25l35.37-43.1L283.46,0l-48.62,54.15,35.36,43.1-140.17,170.11-44.39-54.07,28.74-28.73-14.37-14.37-41.99,42,58.74,71.28-58.74,71.28,41.99,41.99,14.37-14.36-28.74-28.74,44.39-54.06,140.17,170.1-35.36,43.1,48.62,54.15,48.63-54.15-35.37-43.1,140.17-170.1,44.39,54.06-28.74,28.74,14.37,14.36,42-41.99-58.74-71.28,58.74-71.28ZM261.36,55.26l22.1-25.42,22.1,25.42-22.1,26.52-22.1-26.52Zm44.2,457.52l-22.1,24.31-22.1-24.31,22.1-27.63,22.1,27.63Zm-22.1-58.57l-140.2-170.74L283.46,112.73l140.2,170.74-140.2,170.74Z"/>
</svg>