<?xml version="1.0" encoding="UTF-8"?>
<svg id="Layer_1" data-name="Layer 1" xmlns="http://www.w3.org/2000/svg" viewBox="0 0 566.93 566.93">
  <defs>
    <style>
      .cls-1 {
        fill: #231f20;
      }
    </style>
  </defs>
  <path class="cls-1" d="M522.64,324.99l-42.3-42.3,42.3-39.64,31,29.9,13.29-14.4-44.29-43.18-56.44,53.18L297.76,100.11l55.46-55.26L308.93,.56l-13.29,14.39,28.79,29.9-41.05,40.89-40.89-40.89,29.9-29.9-14.4-14.39-43.18,44.29,54.6,54.8L99.93,268.46l-56.75-53.09L0,257.45l14.39,14.39,28.79-28.79,42.47,39.64-42.47,42.3-28.79-29.9L0,308.38l43.18,45.4,57.38-57.17,168.73,157.48-53.37,50.28,40.97,62.01,16.61-11.07-32.11-48.72,41.99-39.35,42.16,39.35-32.11,48.72,16.61,11.07,42.07-62.01-54.22-50.72,167.69-157.13,57.06,57.26,44.29-44.29-13.29-14.4-31,29.9Zm-238.87,115.45L114.82,282.39,283.77,114.05l167.74,168.34-167.74,158.05Z"/>
</svg>