<?xml version="1.0" encoding="UTF-8"?>
<svg id="Layer_1" data-name="Layer 1" xmlns="http://www.w3.org/2000/svg" viewBox="0 0 566.93 566.93">
  <defs>
    <style>
      .cls-1 {
        fill: #231f20;
      }
    </style>
  </defs>
  <polygon class="cls-1" points="488.46 347.56 533.28 293.41 307.13 293.41 491.78 422.71 433.21 503.39 416.63 491.23 463.04 427.13 273.96 294.93 86.2 427.13 148.08 490.13 133.72 504.49 55.25 423.82 241.26 293.41 33.64 293.41 78.46 347.56 62.99 360.83 0 282.36 62.99 206.11 78.46 218.27 34.4 272.42 241.77 272.42 55.25 142.01 133.72 62.44 148.08 76.81 86.2 138.7 274.18 270.33 461.94 138.7 416.63 75.7 433.21 63.55 489.57 143.12 305.93 272.42 532.52 272.42 488.46 218.27 503.93 206.11 566.93 282.36 503.93 360.83 488.46 347.56"/>
</svg>