<?xml version="1.0" encoding="UTF-8"?>
<svg id="Layer_1" data-name="Layer 1" xmlns="http://www.w3.org/2000/svg" viewBox="0 0 566.93 566.93">
  <defs>
    <style>
      .cls-1 {
        fill: #231f20;
      }
    </style>
  </defs>
  <path class="cls-1" d="M485.3,82.73C430.88,27.58,364.34,0,285.67,0S139.7,27.95,83.82,83.83,0,207,0,285.67s27.38,146.15,82.17,200.19c54.77,54.05,121.88,81.07,201.29,81.07s145.59-27.57,200.74-82.72,82.72-122.06,82.72-200.74-27.21-145.6-81.62-200.74Zm-15.44,388.24c-50.73,50.74-112.88,76.11-186.4,76.11s-134.94-24.99-186.4-75c-50.74-50.74-76.11-112.87-76.11-186.41S46.68,151.11,98.16,98.17C151.1,46.7,213.6,20.96,285.67,20.96s136.03,25.37,185.3,76.1c50.73,50.74,76.1,112.88,76.1,186.41s-25.74,136.04-77.21,187.5Z"/>
</svg>