<?xml version="1.0" encoding="UTF-8"?>
<svg id="Layer_1" data-name="Layer 1" xmlns="http://www.w3.org/2000/svg" viewBox="0 0 566.93 566.93">
  <defs>
    <style>
      .cls-1 {
        fill: #231f20;
      }
    </style>
  </defs>
  <path class="cls-1" d="M125.98,256.94l124.88,285.12h-5.53L123.77,263.57,5.53,542.06H0L121.56,256.94c-10.32-1.47-15.47-7.36-15.47-17.68,0-11.78,5.89-17.68,17.68-17.68s17.68,5.9,17.68,17.68c0,10.32-5.16,16.21-15.47,17.68Zm-2.21,35.36l107.2,249.76H16.58l107.2-249.76Zm181.24,66.31l-11.05,25.42v158.03h-19.89v-158.03l-11.05-25.42c-11.79,4.42-19.53,1.48-23.21-8.84-5.16-11.05-2.21-19.15,8.84-24.31l-14.37-32.05c-10.32,5.16-18.06,2.21-23.21-8.84-4.42-11.78-1.48-19.52,8.84-23.21l-14.37-33.15c-10.32,5.16-18.06,2.21-23.21-8.84-4.42-11.78-1.11-19.52,9.95-23.21l17.68-8.84,64.1,145.88v-81.78l-11.05-25.42c-10.32,3.69-18.06,.74-23.21-8.84-2.21-4.42-2.4-9.02-.55-13.81,1.83-4.78,4.97-7.91,9.39-9.39l-14.37-33.15c-10.32,5.16-18.06,2.21-23.21-8.84-4.42-11.78-1.48-19.52,8.84-23.21l-14.37-33.15c-10.32,5.16-18.06,2.21-23.21-8.84-4.42-11.78-1.11-19.52,9.95-23.21l17.68-7.74,64.1,145.88v-69.62c-11.79,0-17.68-5.89-17.68-17.68s5.89-17.68,17.68-17.68V60.23c-11.79,0-17.68-5.89-17.68-17.68s5.89-17.68,17.68-17.68h19.89c11.78,0,17.68,5.9,17.68,17.68,0,10.32-5.9,16.21-17.68,17.68v36.47c5.15,0,9.39,1.85,12.71,5.53,3.32,3.69,4.97,7.74,4.97,12.16,0,11.79-5.9,17.68-17.68,17.68v68.52L358.06,55.81l18.79,7.74h-1.11c11.05,3.69,14.37,11.43,9.95,23.21-5.16,11.05-12.9,14-23.21,8.84l-14.37,33.15c10.31,3.69,13.26,11.43,8.84,23.21-5.16,11.05-12.9,14-23.21,8.84l-14.37,33.15c4.42,1.48,7.55,4.61,9.39,9.39,1.83,4.8,1.66,9.39-.55,13.81-3.69,10.32-11.43,13.26-23.21,8.84l-11.05,25.42v81.78l64.1-145.88,18.79,8.84c10.31,3.69,13.26,11.43,8.84,23.21-5.16,11.05-12.9,14-23.21,8.84l-14.37,33.15c10.31,3.69,13.26,11.43,8.84,23.21-5.16,11.05-12.9,14-23.21,8.84l-14.37,32.05c11.05,5.16,13.99,13.26,8.84,24.31-3.69,10.32-11.43,13.26-23.21,8.84Zm261.91,183.45h-5.53l-116.04-278.49-122.67,278.49h-5.53l124.88-285.12c-10.32-1.47-15.47-7.36-15.47-17.68,0-11.78,5.89-17.68,17.68-17.68s17.68,5.9,17.68,17.68c0,10.32-4.8,16.21-14.37,17.68l119.35,285.12Zm-122.67-249.76l107.2,249.76h-214.39l107.2-249.76Z"/>
</svg>