<?xml version="1.0" encoding="UTF-8"?>
<svg id="Layer_1" data-name="Layer 1" xmlns="http://www.w3.org/2000/svg" viewBox="0 0 566.93 566.93">
  <defs>
    <style>
      .cls-1 {
        fill: #231f20;
      }
    </style>
  </defs>
  <path class="cls-1" d="M211.91,495.92c-59.18,0-109.28-20.7-150.33-62.13C20.52,392.38,0,342.09,0,282.91s20.52-109.28,61.57-150.33c41.05-41.05,91.15-61.57,150.33-61.57V495.92ZM75.44,146.45c-36.99,38.47-55.47,83.95-55.47,136.46s18.48,99.12,55.47,137.57c32.54,31.81,71.37,49.93,116.49,54.36V92.08c-45.12,4.44-83.95,22.57-116.49,54.36ZM237.42,495.92h19.97V71h-19.97V495.92Zm53.25,0h19.97V71h-19.97V495.92ZM504.8,132.58c41.42,41.05,62.13,91.16,62.13,150.33s-20.71,109.47-62.13,150.89c-41.43,41.43-91.72,62.13-150.89,62.13V71c59.17,0,109.46,20.52,150.89,61.57Zm-130.92,342.27c45.85-4.44,85.05-22.55,117.6-54.36,36.98-38.45,55.47-84.32,55.47-137.57s-18.5-98-55.47-136.46c-32.55-31.8-71.75-49.93-117.6-54.36V474.84Z"/>
</svg>