<?xml version="1.0" encoding="UTF-8"?>
<svg id="Layer_1" data-name="Layer 1" xmlns="http://www.w3.org/2000/svg" viewBox="0 0 566.93 566.93">
  <defs>
    <style>
      .cls-1 {
        fill: #231f20;
      }
    </style>
  </defs>
  <path class="cls-1" d="M0,556.98v-19.89c40.51,0,71.09-20.26,91.73-60.78,19.15-36.83,28.73-85.82,28.73-146.98,0-73.67-12.53-142.18-37.57-205.55C58.57,61.16,30.94,29.84,0,29.84V9.95c39.04,0,72.94,35.36,101.67,106.09,25.78,64.1,38.68,135.2,38.68,213.29,0,63.37-10.32,115.67-30.94,156.93-25.05,47.16-61.52,70.73-109.41,70.73ZM341.48,116.04c-16.95-70.73-37.95-106.09-62.99-106.09s-46.05,35.36-62.99,106.09c-14.74,66.31-22.1,135.57-22.1,207.76,0,61.89,5.89,112.72,17.68,152.51,14.73,47.9,37.2,71.83,67.41,71.83s52.67-23.94,67.41-71.83c11.78-39.78,17.68-90.62,17.68-152.51,0-72.2-7.37-141.46-22.1-207.76Zm-15.47,354.75c-11.05,38.32-26.9,57.47-47.52,57.47s-36.1-19.15-48.63-57.47c-11.05-36.83-16.58-85.82-16.58-146.98,0-76.62,7.36-144.39,22.1-203.34,13.99-60.41,28.36-90.62,43.1-90.62,2.94,0,6.63,2.4,11.05,7.18,4.42,4.8,9.57,14.37,15.47,28.73,5.89,14.37,11.42,32.6,16.58,54.7,13.99,60.42,21,128.19,21,203.34,0,61.16-5.53,110.15-16.58,146.98Zm240.92,86.2c-47.9,0-84.37-23.57-109.41-70.73-20.63-41.25-30.94-93.56-30.94-156.93,0-78.09,12.88-149.19,38.68-213.29,28.73-70.73,62.62-106.09,101.67-106.09V29.84c-30.94,0-58.57,31.32-82.88,93.94-25.05,63.37-37.57,131.89-37.57,205.55,0,61.89,9.57,110.89,28.73,146.98,20.62,40.53,51.2,60.78,91.73,60.78v19.89Z"/>
</svg>