<?xml version="1.0" encoding="UTF-8"?>
<svg id="Layer_1" data-name="Layer 1" xmlns="http://www.w3.org/2000/svg" viewBox="0 0 566.93 566.93">
  <defs>
    <style>
      .cls-1 {
        fill: #231f20;
      }
    </style>
  </defs>
  <path class="cls-1" d="M9.95,272.97c6.63,0,9.95,3.32,9.95,9.95s-3.32,9.95-9.95,9.95-9.95-3.32-9.95-9.95,3.32-9.95,9.95-9.95Zm26.52-27.63c6.63,0,9.95,3.32,9.95,9.95s-3.32,9.95-9.95,9.95-9.95-3.32-9.95-9.95,3.32-9.95,9.95-9.95Zm0,56.36c6.63,0,9.95,3.32,9.95,9.95s-3.32,9.95-9.95,9.95-9.95-3.32-9.95-9.95,3.32-9.95,9.95-9.95ZM350.32,170.19h-19.89v75.15h-93.94v-75.15h-19.89v75.15H56.36v19.89H510.57v-19.89h-160.24v-75.15ZM56.36,321.59H216.6v75.15h19.89v-75.15h93.94v75.15h19.89v-75.15h160.24v-19.89H56.36v19.89ZM251.97,130.4c7.36,0,11.05,3.69,11.05,11.05s-3.69,11.05-11.05,11.05-11.05-3.68-11.05-11.05,3.68-11.05,11.05-11.05Zm11.05,295.07c0,7.37-3.69,11.05-11.05,11.05s-11.05-3.68-11.05-11.05c0-8.1,3.68-12.16,11.05-12.16s11.05,4.06,11.05,12.16Zm33.15-314.96c0,8.11-4.06,12.16-12.16,12.16-7.37,0-11.05-4.04-11.05-12.16,0-7.36,3.68-11.05,11.05-11.05,8.1,0,12.16,3.69,12.16,11.05Zm0,344.8c0,8.11-4.06,12.16-12.16,12.16-7.37,0-11.05-4.04-11.05-12.16,0-7.36,3.68-11.05,11.05-11.05,8.1,0,12.16,3.69,12.16,11.05Zm21-324.91c7.36,0,11.05,3.69,11.05,11.05s-3.69,11.05-11.05,11.05-11.05-3.68-11.05-11.05,3.68-11.05,11.05-11.05Zm11.05,295.07c0,7.37-3.69,11.05-11.05,11.05s-11.05-3.68-11.05-11.05c0-8.1,3.68-12.16,11.05-12.16s11.05,4.06,11.05,12.16Zm212.18-171.29c0,6.63-3.32,9.95-9.95,9.95s-9.95-3.32-9.95-9.95c0-5.89,3.32-8.84,9.95-8.84s9.95,2.95,9.95,8.84Zm-9.95,47.52c6.63,0,9.95,3.32,9.95,9.95s-3.32,9.95-9.95,9.95-9.95-3.32-9.95-9.95,3.32-9.95,9.95-9.95Zm26.52-28.73c6.63,0,9.95,3.32,9.95,9.95s-3.32,9.95-9.95,9.95-9.95-3.32-9.95-9.95,3.32-9.95,9.95-9.95Z"/>
</svg>