<?xml version="1.0" encoding="UTF-8"?>
<svg id="Layer_1" data-name="Layer 1" xmlns="http://www.w3.org/2000/svg" viewBox="0 0 566.93 566.93">
  <defs>
    <style>
      .cls-1 {
        fill: #231f20;
      }
    </style>
  </defs>
  <path class="cls-1" d="M566.93,260.25l-66.31-49.73-30.95,23.21-27.62-21,30.94-23.2-65.2-48.63-30.95,23.21-27.62-21,30.94-23.21-65.2-48.62-32.05,23.2-30.95-23.2-65.2,48.62,30.95,23.21-27.63,21-30.95-23.21-66.3,48.63,32.05,23.2-27.63,21-32.05-23.21L0,260.25l30.94,23.21L0,306.67l65.2,48.62,32.05-23.2,27.63,20.99-32.05,23.21,66.3,49.73,30.95-23.21,27.63,19.9-30.95,23.2,65.2,49.73,30.95-23.2,32.05,23.2,65.2-49.73-30.94-23.2,27.62-19.9,30.95,23.21,65.2-49.73-30.94-23.21,27.62-20.99,30.95,23.2,66.31-48.62-30.95-23.21,30.95-23.21Zm-6.64,46.42l-59.67,44.2-30.95-23.2-34.25,25.41,30.94,23.21-58.57,44.21-30.95-23.21-34.26,25.42,30.95,23.2-58.57,44.21-32.05-23.21-30.95,23.21-58.57-44.21,30.95-23.2-34.26-25.42-30.95,23.21-58.57-44.21,30.95-23.21-34.26-25.41-32.05,23.2L6.63,306.67l30.94-23.21-30.94-23.21,58.57-44.2,32.05,23.21,34.26-26.53-30.95-23.2,58.57-43.1,30.95,23.2,34.26-26.52-30.95-23.21,58.57-44.2,30.95,23.21,32.05-23.21,58.57,44.2-30.95,23.21,34.26,26.52,30.95-23.2,58.57,43.1-30.94,23.2,34.25,26.53,30.95-23.21,59.67,44.2-32.04,23.21,32.04,23.21Z"/>
  <path class="cls-1" d="M502.83,264.67l-12.16-16.57-29.81,22.39-71.86-53.89,24.31-18.23-11.05-16.58-30.07,22.21-71.66-53.75,24.37-18.19-12.15-16.58-29.36,21.92-29.22-21.92-12.15,16.58,24.21,18.16-71.45,53.34-29.02-21.77-12.15,16.58,24.01,18-71.21,53.17-30.16-22.55-12.16,15.47,25.81,19.41-25.81,19.27,12.16,16.58,30.77-22.97,72.39,54.46-25.8,19.35,11.05,15.47,30.8-22.75,72.21,54.31-25.65,19.27,12.15,15.47,29.95-22.36,29.73,22.36,12.16-16.57-24.8-18.55,71.24-53.19,29.81,22.01,11.05-15.47-24.76-18.57,72.19-53.89,28.83,21.62,12.15-16.58-23.81-17.86,24.92-18.61Zm-131.06,72.73l-29.19-21.89-12.15,15.47,25.16,18.58-70.93,53.28-72.28-54.05,24.11-17.81-12.15-15.47-28.19,21.14-72.57-54.27,71.18-53.15,29.58,22.18,12.15-16.57-24.57-18.42,71.45-53.35,71.56,53.67-24.5,18.1,12.15,16.57,29.29-21.96,71.87,53.9-71.97,54.05Z"/>
  <path class="cls-1" d="M354.74,313.3l39.79-29.84-39.79-29.84-35.91,26.94-31.5-23.62,35.36-26.53-39.78-29.83-38.68,29.83,34.38,26.53-30.57,23.58-35.86-26.9-39.78,29.84,39.78,29.84,35.86-26.9,30.57,23.59-34.38,26.52,38.68,29.84,39.78-29.84-35.36-26.52,31.5-23.63,35.91,26.94Zm0-53.05l30.94,23.21-30.94,23.21-32.05-23.21,32.05-23.21Zm-142.56,46.42l-30.94-23.21,30.94-23.21,32.05,23.21-32.05,23.21Zm39.78-76.26l30.95-24.31,32.05,24.31-32.05,23.21-30.95-23.21Zm63,106.1l-32.05,23.2-30.95-23.2,30.95-23.21,32.05,23.21Zm-32.05-29.84l-30.95-23.21,30.95-23.21,32.05,23.21-32.05,23.21Z"/>
</svg>