<?xml version="1.0" encoding="UTF-8"?>
<svg id="Layer_1" data-name="Layer 1" xmlns="http://www.w3.org/2000/svg" viewBox="0 0 566.93 566.93">
  <defs>
    <style>
      .cls-1 {
        fill: #231f20;
      }
    </style>
  </defs>
  <path class="cls-1" d="M155.63,171.19c22.23-15.18,47.05-22.79,74.48-22.79h10V418.53h-10c-27.42,0-52.44-7.4-75.03-22.23-22.61-14.82-39.1-34.46-49.47-58.92H0v-106.72H105.6c11.12-24.46,27.79-44.28,50.02-59.47Zm-68.92,79.48H20.01v66.7H86.71v-66.7Zm133.4-81.15c-29.65,2.22-54.66,14.45-75.03,36.68-20.39,22.23-30.57,48.18-30.57,77.81s10.18,55.4,30.57,77.26c20.38,21.87,45.39,34.28,75.03,37.24V169.52Zm35.57,249h20.01V148.4h-20.01V418.53Zm35.57,0h20.01V148.4h-20.01V418.53Zm275.68-81.15h-106.72c-10.38,24.46-26.68,44.1-48.91,58.92-22.23,14.83-47.07,22.23-74.48,22.23h-10V148.4h10c27.41,0,52.25,7.6,74.48,22.79,22.23,15.2,38.53,35.02,48.91,59.47h106.72v106.72Zm-145.62,23.9c20.01-21.85,30.01-47.61,30.01-77.26s-10-56.5-30.01-78.37c-20.01-21.85-44.84-33.9-74.48-36.13v228.99c29.63-2.96,54.47-15.37,74.48-37.24Zm125.61-110.61h-66.7v66.7h66.7v-66.7Z"/>
</svg>