<?xml version="1.0" encoding="UTF-8"?>
<svg id="Layer_1" data-name="Layer 1" xmlns="http://www.w3.org/2000/svg" viewBox="0 0 566.93 566.93">
  <defs>
    <style>
      .cls-1 {
        fill: #231f20;
      }
    </style>
  </defs>
  <path class="cls-1" d="M440.39,409.45c43.83,43.84,65.76,96.33,65.76,157.48h-19.9c0-55.99-19.89-103.7-59.67-143.12-37.41-37.05-81.99-56.69-133.72-58.91v131.3h-19.9v-131.3c-51.72,2.22-96.12,21.86-133.16,58.91-39.42,39.42-59.13,87.13-59.13,143.12h-19.89c0-61.15,21.73-113.64,65.2-157.48,41.09-41.43,90.08-63.3,146.98-65.56v-121.95c-56.9-2.25-105.89-23.92-146.98-65.02C82.51,113.46,60.78,61.16,60.78,0h19.89c0,55.99,19.71,103.7,59.13,143.11,37.04,37.06,81.44,56.69,133.16,58.91V70.72h19.9V202.02c51.73-2.22,96.31-21.85,133.72-58.91C466.36,103.7,486.25,55.99,486.25,0h19.9c0,61.16-21.93,113.46-65.76,156.92-41.44,41.1-90.62,62.77-147.53,65.02v121.95c56.91,2.26,106.09,24.13,147.53,65.56Z"/>
</svg>