<?xml version="1.0" encoding="UTF-8"?>
<svg id="Layer_1" data-name="Layer 1" xmlns="http://www.w3.org/2000/svg" viewBox="0 0 566.93 566.93">
  <defs>
    <style>
      .cls-1 {
        fill: #231f20;
      }
    </style>
  </defs>
  <path class="cls-1" d="M372.43,247.55h35.36V53.05l159.14,229.87-159.14,230.97v-195.61h-36.47l1.11,248.65H194.5v-106.09h107.2c11.05,0,16.58-6.25,16.58-18.79,0-11.05-5.9-16.58-17.68-16.58h-106.09v-107.2h-35.36v248.65H0L70.73,282.91,0,0H159.14V247.55h35.36v-106.09h110.51c2.94-.73,5.89-2.57,8.84-5.53,2.94-2.94,4.42-6.99,4.42-12.16,0-11.78-5.9-17.68-17.68-17.68h-106.09V0h177.93V247.55ZM214.39,19.89V86.2h86.2c10.31,0,19.34,3.32,27.08,9.95,7.74,6.63,11.6,15.85,11.6,27.63s-3.87,21-11.6,27.63-16.77,9.95-27.08,9.95h-86.2v106.09h-76.25l1.11-19.89V19.89H25.42L90.62,278.49l1.11,4.42-1.11,5.53L25.42,547.04h113.83v-227.66l-1.11-21h76.25v107.2h86.2c10.31,0,19.34,3.14,27.08,9.39,7.74,6.27,11.6,15.3,11.6,27.08,0,12.53-3.87,22.1-11.6,28.73-7.74,6.63-16.4,9.95-25.97,9.95h-87.3v66.31h137.04v-248.65h76.25v151.4l114.93-166.87-114.93-165.77v150.3h-76.25V19.89H214.39Z"/>
</svg>