<?xml version="1.0" encoding="UTF-8"?>
<svg id="Layer_1" data-name="Layer 1" xmlns="http://www.w3.org/2000/svg" viewBox="0 0 566.93 566.93">
  <defs>
    <style>
      .cls-1 {
        fill: #231f20;
      }
    </style>
  </defs>
  <path class="cls-1" d="M425.47,284.01l106.09-143.66h-168.04L425.47,0H141.45l61.95,140.35H35.36l106.09,143.66L35.36,426.58H203.26l-62.91,140.35H425.47l-61.95-140.35h168.04l-106.09-142.57ZM172.4,19.89h222.13l-53.05,120.46h-116.04L172.4,19.89Zm222.13,527.14H171.29l54.15-120.45h116.04l53.05,120.45ZM75.14,406.68l82.89-110.51,8.84-12.16-8.84-12.15-82.89-111.62H491.78l-82.89,111.62-8.84,12.15,8.84,12.16,82.89,110.51H75.14Z"/>
</svg>