<?xml version="1.0" encoding="UTF-8"?>
<svg id="Layer_1" data-name="Layer 1" xmlns="http://www.w3.org/2000/svg" viewBox="0 0 566.93 566.93">
  <defs>
    <style>
      .cls-1 {
        fill: #231f20;
      }
    </style>
  </defs>
  <path class="cls-1" d="M165.21,118.25c-6.27-6.26-14.19-9.4-23.76-9.4-8.84,0-16.4,3.14-22.65,9.4-6.27,6.26-9.4,14.19-9.4,23.76,0,8.84,3.13,16.4,9.4,22.65,6.25,6.27,13.81,9.39,22.65,9.39,9.57,0,17.49-3.12,23.76-9.39,6.26-6.25,9.4-13.81,9.4-22.65,0-9.57-3.14-17.5-9.4-23.76Zm0,283.46c-6.27-6.63-14.19-9.95-23.76-9.95-8.84,0-16.4,3.32-22.65,9.95-6.27,6.63-9.4,14.37-9.4,23.21s3.13,16.57,9.4,23.21c6.25,6.63,13.81,9.94,22.65,9.94,9.57,0,17.49-3.31,23.76-9.94,6.26-6.64,9.4-14.37,9.4-23.21s-3.14-16.58-9.4-23.21ZM448.12,118.25c-6.26-6.26-14.19-9.4-23.76-9.4-8.84,0-16.4,3.14-22.65,9.4-6.27,6.26-9.4,14.19-9.4,23.76,0,8.84,3.13,16.4,9.4,22.65,6.25,6.27,13.81,9.39,22.65,9.39,9.57,0,17.5-3.12,23.76-9.39,6.26-6.25,9.4-13.81,9.4-22.65,0-9.57-3.14-17.5-9.4-23.76Zm0,278.49c-6.26-6.26-14.19-9.4-23.76-9.4-8.84,0-16.4,3.14-22.65,9.4-6.27,6.26-9.4,14.19-9.4,23.76,0,8.84,3.13,16.4,9.4,22.65,6.25,6.27,13.81,9.4,22.65,9.4,9.57,0,17.5-3.13,23.76-9.4,6.26-6.25,9.4-13.81,9.4-22.65,0-9.57-3.14-17.5-9.4-23.76Z"/>
  <polygon class="cls-1" points="566.92 273.52 566.92 293.41 292.85 293.41 292.85 566.37 272.96 566.37 272.96 293.41 0 293.41 0 273.52 272.96 273.52 272.96 .55 292.85 .55 292.85 273.52 566.92 273.52"/>
</svg>