<?xml version="1.0" encoding="UTF-8"?>
<svg id="Layer_1" data-name="Layer 1" xmlns="http://www.w3.org/2000/svg" viewBox="0 0 566.93 566.93">
  <defs>
    <style>
      .cls-1 {
        fill: #231f20;
      }
    </style>
  </defs>
  <path class="cls-1" d="M422.71,250.87l-23.21,27.62h-93.94l-17.68-20.99v-122.67l22.1-26.52-26.52-32.05-26.52,32.05,21,26.52v122.67l-16.58,20.99h-93.94l-23.2-27.62-25.42,33.15,25.42,32.05,22.1-26.52h95.04l18.79,23.2h-1.11v118.25l-22.1,27.63,26.52,32.05,26.52-32.05-22.1-27.63v-118.25h-1.1l18.78-23.2h95.04l22.11,26.52,25.41-32.05-25.41-33.15Zm-278.49,55.25l-17.69-22.1,17.69-23.21,18.78,23.21-18.78,22.1Zm120.45-197.81l18.79-22.11,17.68,22.11-17.68,23.2-18.79-23.2Zm36.47,350.32l-17.68,22.1-18.79-22.1,18.79-23.21,17.68,23.21Zm-17.68-151.4l-18.79-23.21,18.79-23.21,17.68,23.21-17.68,23.21Zm120.46-23.21l18.79-23.21,17.68,23.21-17.68,22.1-18.79-22.1Zm18.79-33.15l-23.21,27.62h-93.94l-17.68-20.99v-122.67l22.1-26.52-26.52-32.05-26.52,32.05,21,26.52v122.67l-16.58,20.99h-93.94l-23.2-27.62-25.42,33.15,25.42,32.05,22.1-26.52h95.04l18.79,23.2h-1.11v118.25l-22.1,27.63,26.52,32.05,26.52-32.05-22.1-27.63v-118.25h-1.1l18.78-23.2h95.04l22.11,26.52,25.41-32.05-25.41-33.15Zm-278.49,55.25l-17.69-22.1,17.69-23.21,18.78,23.21-18.78,22.1Zm120.45-197.81l18.79-22.11,17.68,22.11-17.68,23.2-18.79-23.2Zm36.47,350.32l-17.68,22.1-18.79-22.1,18.79-23.21,17.68,23.21Zm-17.68-151.4l-18.79-23.21,18.79-23.21,17.68,23.21-17.68,23.21Zm120.46-23.21l18.79-23.21,17.68,23.21-17.68,22.1-18.79-22.1Zm18.79-33.15l-23.21,27.62h-93.94l-17.68-20.99v-122.67l22.1-26.52-26.52-32.05-26.52,32.05,21,26.52v122.67l-16.58,20.99h-93.94l-23.2-27.62-25.42,33.15,25.42,32.05,22.1-26.52h95.04l18.79,23.2h-1.11v118.25l-22.1,27.63,26.52,32.05,26.52-32.05-22.1-27.63v-118.25h-1.1l18.78-23.2h95.04l22.11,26.52,25.41-32.05-25.41-33.15Zm-278.49,55.25l-17.69-22.1,17.69-23.21,18.78,23.21-18.78,22.1Zm120.45-197.81l18.79-22.11,17.68,22.11-17.68,23.2-18.79-23.2Zm36.47,350.32l-17.68,22.1-18.79-22.1,18.79-23.21,17.68,23.21Zm-17.68-151.4l-18.79-23.21,18.79-23.21,17.68,23.21-17.68,23.21Zm120.46-23.21l18.79-23.21,17.68,23.21-17.68,22.1-18.79-22.1Zm18.79-33.15l-23.21,27.62h-93.94l-17.68-20.99v-122.67l22.1-26.52-26.52-32.05-26.52,32.05,21,26.52v122.67l-16.58,20.99h-93.94l-23.2-27.62-25.42,33.15,25.42,32.05,22.1-26.52h95.04l18.79,23.2h-1.11v118.25l-22.1,27.63,26.52,32.05,26.52-32.05-22.1-27.63v-118.25h-1.1l18.78-23.2h95.04l22.11,26.52,25.41-32.05-25.41-33.15Zm-278.49,55.25l-17.69-22.1,17.69-23.21,18.78,23.21-18.78,22.1Zm120.45-197.81l18.79-22.11,17.68,22.11-17.68,23.2-18.79-23.2Zm36.47,350.32l-17.68,22.1-18.79-22.1,18.79-23.21,17.68,23.21Zm-17.68-151.4l-18.79-23.21,18.79-23.21,17.68,23.21-17.68,23.21Zm120.46-23.21l18.79-23.21,17.68,23.21-17.68,22.1-18.79-22.1Zm18.79-33.15l-23.21,27.62h-93.94l-17.68-20.99v-122.67l22.1-26.52-26.52-32.05-26.52,32.05,21,26.52v122.67l-16.58,20.99h-93.94l-23.2-27.62-25.42,33.15,25.42,32.05,22.1-26.52h95.04l18.79,23.2h-1.11v118.25l-22.1,27.63,26.52,32.05,26.52-32.05-22.1-27.63v-118.25h-1.1l18.78-23.2h95.04l22.11,26.52,25.41-32.05-25.41-33.15Zm-278.49,55.25l-17.69-22.1,17.69-23.21,18.78,23.21-18.78,22.1Zm120.45-197.81l18.79-22.11,17.68,22.11-17.68,23.2-18.79-23.2Zm36.47,350.32l-17.68,22.1-18.79-22.1,18.79-23.21,17.68,23.21Zm-17.68-151.4l-18.79-23.21,18.79-23.21,17.68,23.21-17.68,23.21Zm120.46-23.21l18.79-23.21,17.68,23.21-17.68,22.1-18.79-22.1Zm18.79-33.15l-23.21,27.62h-93.94l-17.68-20.99v-122.67l22.1-26.52-26.52-32.05-26.52,32.05,21,26.52v122.67l-16.58,20.99h-93.94l-23.2-27.62-25.42,33.15,25.42,32.05,22.1-26.52h95.04l18.79,23.2h-1.11v118.25l-22.1,27.63,26.52,32.05,26.52-32.05-22.1-27.63v-118.25h-1.1l18.78-23.2h95.04l22.11,26.52,25.41-32.05-25.41-33.15Zm-278.49,55.25l-17.69-22.1,17.69-23.21,18.78,23.21-18.78,22.1Zm120.45-197.81l18.79-22.11,17.68,22.11-17.68,23.2-18.79-23.2Zm36.47,350.32l-17.68,22.1-18.79-22.1,18.79-23.21,17.68,23.21Zm-17.68-151.4l-18.79-23.21,18.79-23.21,17.68,23.21-17.68,23.21Zm120.46-23.21l18.79-23.21,17.68,23.21-17.68,22.1-18.79-22.1Zm18.79-33.15l-23.21,27.62h-93.94l-17.68-20.99v-122.67l22.1-26.52-26.52-32.05-26.52,32.05,21,26.52v122.67l-16.58,20.99h-93.94l-23.2-27.62-25.42,33.15,25.42,32.05,22.1-26.52h95.04l18.79,23.2h-1.11v118.25l-22.1,27.63,26.52,32.05,26.52-32.05-22.1-27.63v-118.25h-1.1l18.78-23.2h95.04l22.11,26.52,25.41-32.05-25.41-33.15Zm-278.49,55.25l-17.69-22.1,17.69-23.21,18.78,23.21-18.78,22.1Zm120.45-197.81l18.79-22.11,17.68,22.11-17.68,23.2-18.79-23.2Zm36.47,350.32l-17.68,22.1-18.79-22.1,18.79-23.21,17.68,23.21Zm-17.68-151.4l-18.79-23.21,18.79-23.21,17.68,23.21-17.68,23.21Zm120.46-23.21l18.79-23.21,17.68,23.21-17.68,22.1-18.79-22.1Zm18.79-33.15l-23.21,27.62h-93.94l-17.68-20.99v-122.67l22.1-26.52-26.52-32.05-26.52,32.05,21,26.52v122.67l-16.58,20.99h-93.94l-23.2-27.62-25.42,33.15,25.42,32.05,22.1-26.52h95.04l18.79,23.2h-1.11v118.25l-22.1,27.63,26.52,32.05,26.52-32.05-22.1-27.63v-118.25h-1.1l18.78-23.2h95.04l22.11,26.52,25.41-32.05-25.41-33.15Zm-278.49,55.25l-17.69-22.1,17.69-23.21,18.78,23.21-18.78,22.1Zm120.45-197.81l18.79-22.11,17.68,22.11-17.68,23.2-18.79-23.2Zm36.47,350.32l-17.68,22.1-18.79-22.1,18.79-23.21,17.68,23.21Zm-17.68-151.4l-18.79-23.21,18.79-23.21,17.68,23.21-17.68,23.21Zm120.46-23.21l18.79-23.21,17.68,23.21-17.68,22.1-18.79-22.1ZM283.46,0L58.02,284.02l225.44,282.91,225.45-282.91L283.46,0ZM83.43,284.02L283.46,32.05l200.03,251.97-200.03,250.86L83.43,284.02Zm339.28-33.15l-23.21,27.62h-93.94l-17.68-20.99v-122.67l22.1-26.52-26.52-32.05-26.52,32.05,21,26.52v122.67l-16.58,20.99h-93.94l-23.2-27.62-25.42,33.15,25.42,32.05,22.1-26.52h95.04l18.79,23.2h-1.11v118.25l-22.1,27.63,26.52,32.05,26.52-32.05-22.1-27.63v-118.25h-1.1l18.78-23.2h95.04l22.11,26.52,25.41-32.05-25.41-33.15Zm-278.49,55.25l-17.69-22.1,17.69-23.21,18.78,23.21-18.78,22.1Zm120.45-197.81l18.79-22.11,17.68,22.11-17.68,23.2-18.79-23.2Zm36.47,350.32l-17.68,22.1-18.79-22.1,18.79-23.21,17.68,23.21Zm-17.68-151.4l-18.79-23.21,18.79-23.21,17.68,23.21-17.68,23.21Zm120.46-23.21l18.79-23.21,17.68,23.21-17.68,22.1-18.79-22.1Zm18.79-33.15l-23.21,27.62h-93.94l-17.68-20.99v-122.67l22.1-26.52-26.52-32.05-26.52,32.05,21,26.52v122.67l-16.58,20.99h-93.94l-23.2-27.62-25.42,33.15,25.42,32.05,22.1-26.52h95.04l18.79,23.2h-1.11v118.25l-22.1,27.63,26.52,32.05,26.52-32.05-22.1-27.63v-118.25h-1.1l18.78-23.2h95.04l22.11,26.52,25.41-32.05-25.41-33.15Zm-278.49,55.25l-17.69-22.1,17.69-23.21,18.78,23.21-18.78,22.1Zm120.45-197.81l18.79-22.11,17.68,22.11-17.68,23.2-18.79-23.2Zm36.47,350.32l-17.68,22.1-18.79-22.1,18.79-23.21,17.68,23.21Zm-17.68-151.4l-18.79-23.21,18.79-23.21,17.68,23.21-17.68,23.21Zm120.46-23.21l18.79-23.21,17.68,23.21-17.68,22.1-18.79-22.1Zm18.79-33.15l-23.21,27.62h-93.94l-17.68-20.99v-122.67l22.1-26.52-26.52-32.05-26.52,32.05,21,26.52v122.67l-16.58,20.99h-93.94l-23.2-27.62-25.42,33.15,25.42,32.05,22.1-26.52h95.04l18.79,23.2h-1.11v118.25l-22.1,27.63,26.52,32.05,26.52-32.05-22.1-27.63v-118.25h-1.1l18.78-23.2h95.04l22.11,26.52,25.41-32.05-25.41-33.15Zm-278.49,55.25l-17.69-22.1,17.69-23.21,18.78,23.21-18.78,22.1Zm120.45-197.81l18.79-22.11,17.68,22.11-17.68,23.2-18.79-23.2Zm36.47,350.32l-17.68,22.1-18.79-22.1,18.79-23.21,17.68,23.21Zm-17.68-151.4l-18.79-23.21,18.79-23.21,17.68,23.21-17.68,23.21Zm120.46-23.21l18.79-23.21,17.68,23.21-17.68,22.1-18.79-22.1Zm18.79-33.15l-23.21,27.62h-93.94l-17.68-20.99v-122.67l22.1-26.52-26.52-32.05-26.52,32.05,21,26.52v122.67l-16.58,20.99h-93.94l-23.2-27.62-25.42,33.15,25.42,32.05,22.1-26.52h95.04l18.79,23.2h-1.11v118.25l-22.1,27.63,26.52,32.05,26.52-32.05-22.1-27.63v-118.25h-1.1l18.78-23.2h95.04l22.11,26.52,25.41-32.05-25.41-33.15Zm-278.49,55.25l-17.69-22.1,17.69-23.21,18.78,23.21-18.78,22.1Zm120.45-197.81l18.79-22.11,17.68,22.11-17.68,23.2-18.79-23.2Zm36.47,350.32l-17.68,22.1-18.79-22.1,18.79-23.21,17.68,23.21Zm-17.68-151.4l-18.79-23.21,18.79-23.21,17.68,23.21-17.68,23.21Zm120.46-23.21l18.79-23.21,17.68,23.21-17.68,22.1-18.79-22.1Zm18.79-33.15l-23.21,27.62h-93.94l-17.68-20.99v-122.67l22.1-26.52-26.52-32.05-26.52,32.05,21,26.52v122.67l-16.58,20.99h-93.94l-23.2-27.62-25.42,33.15,25.42,32.05,22.1-26.52h95.04l18.79,23.2h-1.11v118.25l-22.1,27.63,26.52,32.05,26.52-32.05-22.1-27.63v-118.25h-1.1l18.78-23.2h95.04l22.11,26.52,25.41-32.05-25.41-33.15Zm-278.49,55.25l-17.69-22.1,17.69-23.21,18.78,23.21-18.78,22.1Zm120.45-197.81l18.79-22.11,17.68,22.11-17.68,23.2-18.79-23.2Zm36.47,350.32l-17.68,22.1-18.79-22.1,18.79-23.21,17.68,23.21Zm-17.68-151.4l-18.79-23.21,18.79-23.21,17.68,23.21-17.68,23.21Zm120.46-23.21l18.79-23.21,17.68,23.21-17.68,22.1-18.79-22.1Zm18.79-33.15l-23.21,27.62h-93.94l-17.68-20.99v-122.67l22.1-26.52-26.52-32.05-26.52,32.05,21,26.52v122.67l-16.58,20.99h-93.94l-23.2-27.62-25.42,33.15,25.42,32.05,22.1-26.52h95.04l18.79,23.2h-1.11v118.25l-22.1,27.63,26.52,32.05,26.52-32.05-22.1-27.63v-118.25h-1.1l18.78-23.2h95.04l22.11,26.52,25.41-32.05-25.41-33.15Zm-278.49,55.25l-17.69-22.1,17.69-23.21,18.78,23.21-18.78,22.1Zm120.45-197.81l18.79-22.11,17.68,22.11-17.68,23.2-18.79-23.2Zm36.47,350.32l-17.68,22.1-18.79-22.1,18.79-23.21,17.68,23.21Zm-17.68-151.4l-18.79-23.21,18.79-23.21,17.68,23.21-17.68,23.21Zm120.46-23.21l18.79-23.21,17.68,23.21-17.68,22.1-18.79-22.1Zm18.79-33.15l-23.21,27.62h-93.94l-17.68-20.99v-122.67l22.1-26.52-26.52-32.05-26.52,32.05,21,26.52v122.67l-16.58,20.99h-93.94l-23.2-27.62-25.42,33.15,25.42,32.05,22.1-26.52h95.04l18.79,23.2h-1.11v118.25l-22.1,27.63,26.52,32.05,26.52-32.05-22.1-27.63v-118.25h-1.1l18.78-23.2h95.04l22.11,26.52,25.41-32.05-25.41-33.15Zm-278.49,55.25l-17.69-22.1,17.69-23.21,18.78,23.21-18.78,22.1Zm120.45-197.81l18.79-22.11,17.68,22.11-17.68,23.2-18.79-23.2Zm36.47,350.32l-17.68,22.1-18.79-22.1,18.79-23.21,17.68,23.21Zm-17.68-151.4l-18.79-23.21,18.79-23.21,17.68,23.21-17.68,23.21Zm120.46-23.21l18.79-23.21,17.68,23.21-17.68,22.1-18.79-22.1Zm18.79-33.15l-23.21,27.62h-93.94l-17.68-20.99v-122.67l22.1-26.52-26.52-32.05-26.52,32.05,21,26.52v122.67l-16.58,20.99h-93.94l-23.2-27.62-25.42,33.15,25.42,32.05,22.1-26.52h95.04l18.79,23.2h-1.11v118.25l-22.1,27.63,26.52,32.05,26.52-32.05-22.1-27.63v-118.25h-1.1l18.78-23.2h95.04l22.11,26.52,25.41-32.05-25.41-33.15Zm-278.49,55.25l-17.69-22.1,17.69-23.21,18.78,23.21-18.78,22.1Zm120.45-197.81l18.79-22.11,17.68,22.11-17.68,23.2-18.79-23.2Zm36.47,350.32l-17.68,22.1-18.79-22.1,18.79-23.21,17.68,23.21Zm-17.68-151.4l-18.79-23.21,18.79-23.21,17.68,23.21-17.68,23.21Zm120.46-23.21l18.79-23.21,17.68,23.21-17.68,22.1-18.79-22.1Zm18.79-33.15l-23.21,27.62h-93.94l-17.68-20.99v-122.67l22.1-26.52-26.52-32.05-26.52,32.05,21,26.52v122.67l-16.58,20.99h-93.94l-23.2-27.62-25.42,33.15,25.42,32.05,22.1-26.52h95.04l18.79,23.2h-1.11v118.25l-22.1,27.63,26.52,32.05,26.52-32.05-22.1-27.63v-118.25h-1.1l18.78-23.2h95.04l22.11,26.52,25.41-32.05-25.41-33.15Zm-278.49,55.25l-17.69-22.1,17.69-23.21,18.78,23.21-18.78,22.1Zm120.45-197.81l18.79-22.11,17.68,22.11-17.68,23.2-18.79-23.2Zm36.47,350.32l-17.68,22.1-18.79-22.1,18.79-23.21,17.68,23.21Zm-17.68-151.4l-18.79-23.21,18.79-23.21,17.68,23.21-17.68,23.21Zm120.46-23.21l18.79-23.21,17.68,23.21-17.68,22.1-18.79-22.1Z"/>
</svg>