<?xml version="1.0" encoding="UTF-8"?>
<svg id="Layer_1" data-name="Layer 1" xmlns="http://www.w3.org/2000/svg" viewBox="0 0 566.93 566.93">
  <defs>
    <style>
      .cls-1 {
        fill: #231f20;
      }
    </style>
  </defs>
  <path class="cls-1" d="M7.73,276.28C2.57,276.28,0,278.86,0,284.01c0,4.42,2.57,6.63,7.73,6.63,4.42,0,6.63-2.21,6.63-6.63,0-5.15-2.21-7.73-6.63-7.73Zm28.74,0c-4.42,0-6.63,2.58-6.63,7.73,0,4.42,2.21,6.63,6.63,6.63s6.63-2.21,6.63-6.63c0-5.15-2.21-7.73-6.63-7.73Zm23.2,6.63l163.56,230.97V53.04L59.67,282.91Zm143.67,169.08l-119.35-169.08L203.34,114.93V451.99ZM249.76,22.1c-8.85,0-13.27,4.06-13.27,12.16,0,8.84,4.42,13.26,13.27,13.26,8.1,0,12.15-4.42,12.15-13.26,0-8.1-4.05-12.16-12.15-12.16Zm-1.11,496.2c-8.11,0-12.16,4.06-12.16,12.16,0,8.84,4.05,13.26,12.16,13.26,8.84,0,13.26-4.05,13.26-12.16,0-8.84-4.42-13.26-13.26-13.26Zm-9.95-465.26v460.84h19.9V53.04h-19.9ZM287.33,1.1c-.74-.73-1.85-1.1-3.32-1.1-.5,0-.96,.04-1.37,.13l-1.94,.97c-5.9,2.21-8.84,6.27-8.84,12.16,0,8.11,4.04,12.15,12.15,12.15,8.85,1.49,13.27-2.57,13.27-12.15,0-6.63-3.32-10.68-9.95-12.16Zm-2.21,539.3c-8.84,0-13.26,4.06-13.26,12.16,0,5.9,2.57,9.94,7.73,12.16l.32,.31,.79,.79h3.31c.73,0,1.66-.18,2.77-.55,1.1-.37,2.02-.55,2.76-.55,5.15-2.22,7.74-6.26,7.74-12.16,0-8.1-4.06-12.16-12.16-12.16Zm-5.21,24.63l.79,.79h.19c-.32-.23-.65-.49-.98-.79Zm6.87,.24c-1.11,.37-2.04,.55-2.77,.55h-3.12c1.04,.74,2.08,1.11,3.12,1.11,2.21,0,4.05-.75,5.53-2.21-.74,0-1.66,.18-2.76,.55ZM280.7,1.1l1.94-.97c-.81,.16-1.46,.49-1.94,.97Zm39.78,21c-7.37,0-11.79,4.06-13.26,12.16,0,8.84,4.42,13.26,13.26,13.26,8.1,0,12.16-4.05,12.16-12.16,1.47-8.84-2.59-13.26-12.16-13.26Zm0,496.2c-8.84,0-13.26,4.06-13.26,12.16,0,8.84,4.05,13.26,12.16,13.26,8.84,0,13.26-4.05,13.26-12.16,0-8.84-4.06-13.26-12.16-13.26Zm-11.05-465.26v460.84h19.89V53.04h-19.89Zm35.37-1.1v461.94l145.87-230.97L344.8,51.94Zm19.89,69.62l101.67,161.35-101.67,161.35V121.56Zm166.87,153.61c-4.42,0-6.63,2.59-6.63,7.74,0,4.42,2.21,6.63,6.63,6.63s6.63-2.21,6.63-6.63c0-5.15-2.21-7.74-6.63-7.74Zm27.63,1.11c-4.42,0-6.63,2.21-6.63,6.63,0,5.16,2.21,7.73,6.63,7.73,5.15,0,7.74-2.57,7.74-7.73,0-4.42-2.59-6.63-7.74-6.63Z"/>
</svg>