<?xml version="1.0" encoding="UTF-8"?>
<svg id="Layer_1" data-name="Layer 1" xmlns="http://www.w3.org/2000/svg" viewBox="0 0 566.93 566.93">
  <defs>
    <style>
      .cls-1 {
        fill: #231f20;
      }
    </style>
  </defs>
  <path class="cls-1" d="M496.21,380.71l-88.41,159.14h159.13l-70.72-159.14Zm-424.37,0L1.11,539.85H160.25l-88.41-159.14Z"/>
  <polygon class="cls-1" points="566.93 500.07 566.93 512.22 495.1 350.87 406.69 510.01 296.18 258.04 293.97 261.36 293.97 279.04 407.8 539.85 160.25 539.85 274.08 279.04 274.08 261.36 270.76 258.04 159.14 510.01 70.73 350.87 0 510.01 0 497.86 70.73 339.82 159.14 498.96 266.34 253.62 134.83 122.11 149.2 107.75 274.08 232.63 274.08 218.26 253.08 198.37 260.81 191.74 274.08 203.89 274.08 191.74 253.08 171.84 260.81 165.21 274.08 177.37 274.08 165.21 253.08 145.32 260.81 138.69 274.08 150.85 274.08 138.69 253.08 118.8 260.81 112.17 274.08 124.32 274.08 112.17 253.08 92.27 260.81 85.64 274.08 97.8 274.08 85.64 253.08 65.75 260.81 59.12 274.08 71.28 274.08 27.07 293.97 27.07 293.97 71.28 306.12 59.12 313.86 65.75 293.97 85.64 293.97 97.8 306.12 85.64 313.86 92.27 293.97 112.17 293.97 124.32 306.12 112.17 313.86 118.8 293.97 138.69 293.97 150.85 306.12 138.69 313.86 145.32 293.97 165.21 293.97 177.37 306.12 165.21 313.86 171.84 293.97 191.74 293.97 203.89 306.12 191.74 313.86 198.37 293.97 218.26 293.97 232.63 417.74 107.75 432.11 122.11 300.6 253.62 406.69 498.96 495.1 339.82 566.93 500.07"/>
</svg>