<?xml version="1.0" encoding="UTF-8"?>
<svg id="Layer_1" data-name="Layer 1" xmlns="http://www.w3.org/2000/svg" viewBox="0 0 566.93 566.93">
  <defs>
    <style>
      .cls-1 {
        fill: #231f20;
      }
    </style>
  </defs>
  <path class="cls-1" d="M12.13,334.75c4.41,2.95,4.41,5.89,0,8.82-2.95,4.41-5.89,4.41-8.82,0-4.41-2.93-4.41-5.88,0-8.82,2.93-4.41,5.88-4.41,8.82,0Zm-11.03,23.16c0,4.41,2.21,6.62,6.62,6.62s6.62-2.21,6.62-6.62-2.21-6.62-6.62-6.62-6.62,2.21-6.62,6.62Zm530.53-84.93c4.41-5.88,10.29-13.24,17.65-22.06-1.48,2.95-3.68,7.17-6.62,12.68-2.95,5.51-5.15,9.75-6.62,12.68l-13.24,24.27c-1.48,2.95-3.68,7.17-6.62,12.68-2.95,5.51-5.15,9.75-6.62,12.68l-13.24,24.27-5.51,12.13-8.82-12.13-6.62-8.82c-2.95-4.41-5.15-7.34-6.62-8.82-2.95-4.41-4.79-7.72-5.51-9.93l-6.62-8.82-15.44-25.37-40.81,62.87-8.82,13.24-7.72-14.34-36.4-60.66-38.6,60.66-7.72,14.34-8.82-14.34-38.6-60.66-37.5,60.66-8.82,14.34-8.82-14.34-37.5-60.66-38.6,60.66-8.82,14.34-8.82-14.34-11.03-18.75c-1.48-1.47-3.5-4.22-6.07-8.27-2.58-4.04-4.6-7.17-6.07-9.38-.74-1.47-1.65-3.31-2.76-5.51-1.1-2.21-2.03-3.67-2.76-4.41l-5.51-9.93-4.41-8.82-6.62,7.72-13.24,18.75c-1.48,2.21-3.68,5.15-6.62,8.82-2.95,3.68-5.15,6.62-6.62,8.82-.74,.74-5.51,6.62-14.34,17.65l9.93-19.85c.73-2.21,2.38-5.51,4.96-9.93,2.57-4.41,4.59-7.72,6.07-9.93l9.93-20.96,11.03-19.85,5.51-9.93,7.72,9.93,12.13,17.65,6.62,8.82,6.62,9.93c1.47,2.21,3.48,5.34,6.07,9.38,2.57,4.05,4.22,7.17,4.96,9.38l3.31,5.51,38.6-61.77,8.82-13.24,7.72,13.24,38.6,61.77,38.6-61.77,7.72-13.24,8.82,13.24,38.6,61.77,37.5-61.77,8.82-13.24,8.82,13.24,36.4,61.77,40.81-61.77,7.72-13.24,8.82,13.24,24.27,37.5,5.51,8.82,6.62,9.93c1.47,2.95,2.93,5.15,4.41,6.62l7.72-9.93,16.54-23.16,16.54-22.06ZM31.99,353.5c2.93,2.95,2.93,6.25,0,9.93-3.68,2.95-6.99,2.95-9.93,0-2.95-3.67-2.95-6.98,0-9.93,2.93-2.93,6.24-2.93,9.93,0Zm14.34-106.99c0,4.41,2.21,6.62,6.62,6.62s6.62-2.21,6.62-6.62-2.21-6.62-6.62-6.62-6.62,2.21-6.62,6.62Zm19.85-19.85c-4.41,0-6.62,2.21-6.62,6.62s2.21,6.62,6.62,6.62c5.14,0,7.72-2.21,7.72-6.62s-2.58-6.62-7.72-6.62Zm7.72,19.85c0,4.41,2.21,6.62,6.62,6.62s6.62-2.21,6.62-6.62-2.21-6.62-6.62-6.62-6.62,2.21-6.62,6.62Zm27.57,140.08c-4.41,0-6.62-2.21-6.62-6.62s2.21-6.62,6.62-6.62,6.62,2.21,6.62,6.62-2.21,6.62-6.62,6.62Zm6.62,6.62c0,4.41,2.21,6.62,6.62,6.62s6.62-2.21,6.62-6.62-2.21-6.62-6.62-6.62-6.62,2.21-6.62,6.62Zm19.85-6.62c-4.41,0-6.62-2.21-6.62-6.62s2.21-6.62,6.62-6.62,6.62,2.21,6.62,6.62-2.21,6.62-6.62,6.62Zm18.75-153.31c4.41,0,6.62,2.21,6.62,6.62s-2.21,6.62-6.62,6.62-6.62-2.21-6.62-6.62,2.21-6.62,6.62-6.62Zm6.62-6.62c0,4.41,2.21,6.62,6.62,6.62s6.62-2.21,6.62-6.62-2.21-6.62-6.62-6.62-6.62,2.21-6.62,6.62Zm19.85,6.62c4.41,0,6.62,2.21,6.62,6.62s-2.21,6.62-6.62,6.62-6.62-2.21-6.62-6.62,2.21-6.62,6.62-6.62Zm20.96,136.77c-4.41,0-6.62,2.21-6.62,6.62s2.21,6.62,6.62,6.62c5.14,0,7.72-2.21,7.72-6.62s-2.58-6.62-7.72-6.62Zm20.96,20.96c0,4.41-2.21,6.62-6.62,6.62s-6.62-2.21-6.62-6.62c0-5.14,2.21-7.72,6.62-7.72s6.62,2.58,6.62,7.72Zm11.58-157.17c-7.72-7.72-11.58-16.72-11.58-27.02,0-11.03,3.86-20.41,11.58-28.13,7.72-7.72,16.72-11.58,27.02-11.58,11.03,0,20.41,3.86,28.13,11.58s11.58,17.1,11.58,28.13c0,10.3-3.86,19.3-11.58,27.02s-17.1,11.58-28.13,11.58c-10.3,0-19.3-3.86-27.02-11.58Zm-11.58,142.84c0,4.41,2.21,6.62,6.62,6.62s6.62-2.21,6.62-6.62-2.21-6.62-6.62-6.62-6.62,2.21-6.62,6.62Zm15.44-190.81c-5.15,5.89-7.72,12.87-7.72,20.96,0,7.36,2.57,13.98,7.72,19.85,5.14,5.89,11.76,9.56,19.85,11.03v-61.77c-8.1,.74-14.71,4.05-19.85,9.93Zm27.57,51.84c8.08-1.47,14.7-5.14,19.85-11.03,5.14-5.88,7.72-12.5,7.72-19.85,0-8.08-2.58-15.07-7.72-20.96-5.15-5.88-11.77-9.19-19.85-9.93v61.77Zm25.37,138.97c0,4.41,2.21,6.62,6.62,6.62s6.62-2.21,6.62-6.62-2.21-6.62-6.62-6.62-6.62,2.21-6.62,6.62Zm19.85,6.62c-4.41,0-6.62,2.58-6.62,7.72,0,4.41,2.21,6.62,6.62,6.62s6.62-2.21,6.62-6.62c0-5.14-2.21-7.72-6.62-7.72Zm13.24,0c-4.41,0-6.62-2.21-6.62-6.62s2.21-6.62,6.62-6.62,6.62,2.21,6.62,6.62-2.21,6.62-6.62,6.62Zm16.54-150c4.41,0,6.62,2.21,6.62,6.62s-2.21,6.62-6.62,6.62-6.62-2.21-6.62-6.62,2.21-6.62,6.62-6.62Zm14.34-13.24c-5.15,0-7.72,2.21-7.72,6.62s2.57,6.62,7.72,6.62c4.41,0,6.62-2.21,6.62-6.62s-2.21-6.62-6.62-6.62Zm13.24,13.24c4.41,0,6.62,2.21,6.62,6.62s-2.21,6.62-6.62,6.62-6.62-2.21-6.62-6.62,2.21-6.62,6.62-6.62Zm13.24,143.39c0,4.41,2.21,6.62,6.62,6.62s6.62-2.21,6.62-6.62-2.21-6.62-6.62-6.62-6.62,2.21-6.62,6.62Zm19.85,6.62c-4.41,0-6.62,2.58-6.62,7.72,0,4.41,2.21,6.62,6.62,6.62s6.62-2.21,6.62-6.62c0-5.14-2.21-7.72-6.62-7.72Zm20.96-6.62c0,4.41-2.58,6.62-7.72,6.62-4.41,0-6.62-2.21-6.62-6.62s2.21-6.62,6.62-6.62c5.14,0,7.72,2.21,7.72,6.62Zm5.51-134.56c0,4.41,2.21,6.62,6.62,6.62s6.62-2.21,6.62-6.62-2.21-6.62-6.62-6.62-6.62,2.21-6.62,6.62Zm13.24-13.24c0,4.41,2.21,6.62,6.62,6.62s6.62-2.21,6.62-6.62-2.21-6.62-6.62-6.62-6.62,2.21-6.62,6.62Zm19.85,6.62c4.41,0,6.62,2.21,6.62,6.62s-2.21,6.62-6.62,6.62-6.62-2.21-6.62-6.62,2.21-6.62,6.62-6.62Zm80.52,5.51c0,4.41,2.21,6.62,6.62,6.62s6.62-2.21,6.62-6.62-2.21-6.62-6.62-6.62-6.62,2.21-6.62,6.62Zm19.85,0c0,4.41,2.21,6.62,6.62,6.62s6.62-2.21,6.62-6.62-2.21-6.62-6.62-6.62-6.62,2.21-6.62,6.62Zm6.62,12.13c-4.41,0-6.62,2.58-6.62,7.72,0,4.41,2.21,6.62,6.62,6.62s6.62-2.21,6.62-6.62c0-5.14-2.21-7.72-6.62-7.72Z"/>
</svg>