<?xml version="1.0" encoding="UTF-8"?>
<svg id="Layer_1" data-name="Layer 1" xmlns="http://www.w3.org/2000/svg" viewBox="0 0 566.93 566.93">
  <defs>
    <style>
      .cls-1 {
        fill: #231f20;
      }
    </style>
  </defs>
  <path class="cls-1" d="M35.43,281.25c0,5.17-1.66,9.6-4.98,13.29-3.32,3.7-7.57,5.54-12.73,5.54s-9.41-1.84-12.73-5.54c-3.32-3.69-4.98-8.12-4.98-13.29,0-11.8,5.9-17.72,17.72-17.72s17.72,5.91,17.72,17.72Zm17.72-53.15c11.8,0,17.72,5.91,17.72,17.72s-5.91,17.72-17.72,17.72-17.72-5.9-17.72-17.72,5.9-17.72,17.72-17.72Zm0,71.97c11.8,0,17.72,5.91,17.72,17.72s-5.91,17.72-17.72,17.72-17.72-5.9-17.72-17.72,5.9-17.72,17.72-17.72Zm6.64-83.05l17.72-18.82,28.79,27.68H455.09l28.79-28.79,18.82,19.93,14.39-14.39-19.93-19.93,11.07-9.97-14.39-14.39-9.97,9.97-19.93-19.93-14.39,14.39,19.93,19.93-23.25,23.25H114.05l-22.15-22.15,21.04-21.04-14.39-14.39-21.04,21.04-12.18-11.07-14.39,14.39,12.18,11.07-17.72,18.82,14.39,14.39Zm446.24,132.87l-18.82,19.93-28.79-28.79H109.62l-28.79,27.68-17.72-18.82-14.39,14.39,17.72,18.82-11.07,11.07,13.29,14.39,12.18-11.07,21.04,21.04,14.39-14.39-21.04-21.04,22.15-22.15H450.66l22.15,23.25-19.93,19.93,14.39,14.39,19.93-21.04,9.97,11.07,14.39-14.39-9.97-9.97,18.82-19.93-14.39-14.39ZM108.51,269.07H457.31v19.93H108.51v-19.93Zm404.16-43.18c11.8,0,17.72,5.91,17.72,17.72s-5.91,17.72-17.72,17.72-17.72-5.9-17.72-17.72,5.9-17.72,17.72-17.72Zm0,71.97c11.8,0,17.72,5.91,17.72,17.72s-5.91,17.72-17.72,17.72-17.72-5.9-17.72-17.72,5.9-17.72,17.72-17.72Zm54.26-18.82c0,5.17-1.66,9.6-4.98,13.29-3.32,3.7-7.57,5.54-12.73,5.54s-9.6-1.84-13.29-5.54c-3.7-3.69-5.54-8.12-5.54-13.29s1.84-9.41,5.54-12.73c3.69-3.32,8.12-4.98,13.29-4.98,11.8,0,17.72,5.91,17.72,17.72Z"/>
</svg>