<?xml version="1.0" encoding="UTF-8"?>
<svg id="Layer_1" data-name="Layer 1" xmlns="http://www.w3.org/2000/svg" viewBox="0 0 566.93 566.93">
  <defs>
    <style>
      .cls-1 {
        fill: #231f20;
      }
    </style>
  </defs>
  <path class="cls-1" d="M160,259.66c6.64,7.02,9.97,15.33,9.97,24.91s-3.51,17.91-10.52,24.91c-7.02,7.02-15.33,10.52-24.91,10.52s-17.91-3.5-24.91-10.52c-7.02-7.01-10.52-15.31-10.52-24.91s3.32-17.89,9.97-24.91c6.64-7.01,15.12-10.52,25.47-10.52s18.82,3.51,25.47,10.52Zm32.66-141.73c7.01,7.02,10.52,15.33,10.52,24.91s-3.51,17.91-10.52,24.91c-7.02,7.02-15.33,10.52-24.91,10.52-10.34,0-18.82-3.5-25.47-10.52-6.64-7.01-9.97-15.31-9.97-24.91s3.5-17.89,10.52-24.91c7.01-7.01,15.31-10.52,24.91-10.52s17.89,3.51,24.91,10.52Zm0,282.36c7.01,7.02,10.52,15.33,10.52,24.91s-3.51,17.91-10.52,24.91c-7.02,7.02-15.33,10.52-24.91,10.52-10.34,0-18.82-3.32-25.47-9.97-6.64-6.64-9.97-15.12-9.97-25.47,0-9.59,3.5-17.89,10.52-24.91,7.01-7.01,15.31-10.52,24.91-10.52s17.89,3.51,24.91,10.52Zm275.16,166.65c-81.94,0-150.23-27.3-204.85-81.94-53.89-53.88-80.83-120.69-80.83-200.42s26.94-146.16,80.83-201.53C318.34,27.68,386.62,0,467.83,0V19.93c-76.04,0-139.34,25.29-189.9,75.85-50.57,50.57-75.85,113.5-75.85,188.79s25.28,136.94,75.85,187.13c50.56,50.21,113.86,75.3,189.9,75.3v19.93Z"/>
</svg>