<?xml version="1.0" encoding="UTF-8"?>
<svg id="Layer_1" data-name="Layer 1" xmlns="http://www.w3.org/2000/svg" viewBox="0 0 566.93 566.93">
  <defs>
    <style>
      .cls-1 {
        fill: #231f20;
      }
    </style>
  </defs>
  <path class="cls-1" d="M515.89,205.25l26.63,14.42-9.99,16.64-27.74-14.42-7.77,12.2,28.85,15.53-8.88,17.75-31.06-16.64-8.88,14.42,32.17,16.64-9.99,17.75-32.17-17.75-7.77,12.2,33.28,17.75-9.99,17.75-34.39-18.86-84.32,132.02-57.69-88.76-22.19,13.31-11.09-16.64,22.19-13.31-7.77-12.2-22.19,13.31-9.99-16.64,21.08-13.31-8.88-14.42-22.19,14.42-9.99-16.64,21.08-14.42-7.77-12.2-21.08,14.42-11.09-16.64,21.08-14.42-56.58-87.65-53.25,95.41,33.28,19.97-9.99,17.75-32.17-19.97-9.99,16.64,34.39,21.08-9.99,16.64-34.39-19.97-8.88,16.64,35.5,22.19-9.99,16.64-35.5-21.08-9.99,16.64,37.72,23.3-9.99,16.64-37.72-22.19-36.61,65.46H0l43.27-75.44-34.39-21.08,11.09-16.64,33.28,19.97,8.88-16.64-35.5-21.08,11.09-17.75,34.39,21.08,9.99-16.64-37.72-22.19,11.09-17.75,36.61,22.19,9.99-16.64-39.94-23.3,11.09-17.75,38.83,23.3,68.79-122.04,73.22,113.16,38.83-24.41,11.09,16.64-38.83,24.41,7.77,12.2,38.83-24.41,9.99,16.64-37.72,24.41,8.88,14.42,38.83-24.41,9.99,16.64-37.72,24.41,7.77,12.2,37.72-24.41,11.09,16.64-37.72,24.41,41.05,64.35,67.68-106.51-28.85-14.42,9.99-17.75,28.85,15.53,7.77-12.2-29.96-15.53,8.88-17.75,32.17,16.64,8.88-14.42-33.28-16.64,9.99-17.75,33.28,17.75,7.77-12.2-34.39-18.86,9.99-16.64,35.5,18.86,44.38-71h24.41l-51.03,80.99Z"/>
</svg>