<?xml version="1.0" encoding="UTF-8"?>
<svg id="Layer_1" data-name="Layer 1" xmlns="http://www.w3.org/2000/svg" viewBox="0 0 566.93 566.93">
  <defs>
    <style>
      .cls-1 {
        fill: #231f20;
      }
    </style>
  </defs>
  <path class="cls-1" d="M340.37,405.58c-18.42-18.41-40.89-27.63-67.41-27.63v188.98c26.52,0,48.99-9.21,67.41-27.63s27.63-40.89,27.63-67.42-9.22-47.88-27.63-66.3Zm-7.73,111.61c-10.32,13.27-23.21,22.11-38.68,26.53v-143.67c15.47,4.42,28.36,13.26,38.68,26.52,10.31,13.27,15.47,28.37,15.47,45.31s-5.16,32.05-15.47,45.31Zm7.73-300.59c-18.42-18.41-40.89-27.63-67.41-27.63v188.98c26.52,0,48.99-9.21,67.41-27.63s27.63-40.89,27.63-67.41-9.22-47.89-27.63-66.31Zm-7.73,111.62c-10.32,13.26-23.21,22.1-38.68,26.52V212.18c15.47,3.69,28.36,12.35,38.68,25.97,10.31,13.64,15.47,28.56,15.47,44.76s-5.16,32.05-15.47,45.31Zm7.73-300.6C321.95,9.21,299.48,0,272.96,0V188.97c26.52,0,48.99-9.2,67.41-27.63,18.41-18.41,27.63-40.89,27.63-67.41s-9.22-47.88-27.63-66.31Zm-7.73,111.62c-10.32,13.26-23.21,22.1-38.68,26.53V23.2c15.47,3.7,28.36,12.35,38.68,25.97,10.31,13.64,15.47,28.56,15.47,44.76s-5.16,32.05-15.47,45.31ZM198.92,0V566.93h19.89V0h-19.89Z"/>
</svg>