<?xml version="1.0" encoding="UTF-8"?>
<svg id="Layer_1" data-name="Layer 1" xmlns="http://www.w3.org/2000/svg" viewBox="0 0 566.93 566.93">
  <defs>
    <style>
      .cls-1 {
        fill: #231f20;
      }
    </style>
  </defs>
  <polygon class="cls-1" points="293.45 286.67 293.45 394.14 363.35 295.11 379.99 307.32 293.45 428.68 293.45 517.42 363.35 419.37 379.99 430.46 293.45 551.82 293.45 566.93 273.48 566.93 273.48 551.81 186.95 430.46 203.59 419.37 273.48 517.41 273.48 428.66 186.95 307.32 203.59 295.11 273.48 394.13 273.48 286.65 186.95 165.31 203.59 154.21 273.48 252.26 273.48 144.64 186.95 23.3 203.59 12.2 273.48 110.25 273.48 0 293.45 0 293.45 110.26 363.35 12.2 379.99 23.3 293.45 144.66 293.45 252.46 364.46 154.21 379.99 165.31 293.45 286.67"/>
</svg>