<?xml version="1.0" encoding="UTF-8"?>
<svg id="Layer_1" data-name="Layer 1" xmlns="http://www.w3.org/2000/svg" viewBox="0 0 566.93 566.93">
  <defs>
    <style>
      .cls-1 {
        fill: #231f20;
      }
    </style>
  </defs>
  <path class="cls-1" d="M70.69,141.39L0,70.69,70.69,0l70.69,70.69-70.69,70.69Zm0,142.77L0,212.08l70.69-70.69,70.69,70.69-70.69,72.08Zm141.39,0l-72.08-70.69,72.08-70.69,70.69,70.69-70.69,70.69Zm-72.08,70.69l72.08,72.08,70.69-72.08-70.69-70.69-72.08,70.69Zm72.08-213.46l-70.69-70.69L212.08,0l70.69,70.69-70.69,70.69Zm0,142.77l-70.69-72.08,70.69-70.69,70.69,70.69-70.69,72.08Zm141.39,0l-70.69-70.69,70.69-70.69,70.69,70.69-70.69,70.69Zm0,142.77l-70.69-72.08,70.69-70.69,70.69,70.69-70.69,72.08Zm1.39-1.39l-70.69-70.69,70.69-72.08,70.69,72.08-70.69,70.69Zm0,141.39l-70.69-70.69,70.69-70.69,70.69,70.69-70.69,70.69Zm70.69-212.08l70.69,70.69,70.69-70.69-70.69-72.08-70.69,72.08Zm70.69,212.08l-70.69-70.69,70.69-70.69,70.69,70.69-70.69,70.69Z"/>
</svg>