<?xml version="1.0" encoding="UTF-8"?>
<svg id="Layer_1" data-name="Layer 1" xmlns="http://www.w3.org/2000/svg" viewBox="0 0 566.93 566.93">
  <defs>
    <style>
      .cls-1 {
        fill: #231f20;
      }
    </style>
  </defs>
  <path class="cls-1" d="M454.77,486.26c6.25,28.73,8.84,48.07,7.74,58.02-1.11,9.95-2.4,17.51-3.87,22.66l-21-7.74c-14-5.89-32.43-18.6-55.26-38.13-22.84-19.52-43.1-43.28-60.78-71.28-14-24.31-23.21-43.83-27.63-58.57v89.52h-21v-88.41c-4.42,14-13.64,33.15-27.63,57.47-11.05,17.68-23.4,33.71-37.02,48.07-13.64,14.37-25.79,25.61-36.47,33.71-10.69,8.11-21.55,15.11-32.6,21-11.05,5.9-18.42,9.58-22.1,11.05-3.69,1.48-6.63,2.57-8.84,3.32l-3.32-21c-2.21-13.26,0-33.71,6.63-61.33,6.63-27.63,18.79-55.43,36.47-83.44,28.73-44.93,63.72-79.19,104.99-102.78L171.31,113.83c-29.47,18.42-44.21,48.26-44.21,89.52h-19.89c0-53.05,22.1-90.62,66.31-112.72,5.89-1.47,9.95,.38,12.16,5.53l85.09,193.4c.73-.73,1.47-1.11,2.21-1.11V118.25c-12.53-2.21-23.03-8.84-31.5-19.89-8.48-11.05-12.71-23.94-12.71-38.68,0-16.2,5.34-30.2,16.02-41.99C255.47,5.9,268.18,0,282.93,0c15.47,0,28.54,5.71,39.23,17.13,10.67,11.43,16.02,25.61,16.02,42.55,0,14.74-4.24,27.63-12.71,38.68-8.48,11.05-18.98,17.68-31.5,19.89v170.19l2.21,1.11,85.09-193.4c2.94-5.15,7.36-6.63,13.26-4.42,43.46,21.37,65.2,58.57,65.2,111.62h-19.89c0-39.78-15.11-69.25-45.31-88.41l-80.67,183.45c41.25,23.58,76.25,57.84,104.99,102.78,17.68,28,29.65,56.36,35.92,85.09Zm-187.32-173.5c-.74,.74-3.5,2.59-8.29,5.53-4.8,2.95-8.67,5.16-11.6,6.63-31.68,20.63-58.95,49.73-81.78,87.3-22.1,34.64-35.36,70.36-39.78,107.2v17.68c3.68-1.47,9.95-5.15,18.79-11.05,31.67-19.89,59.3-48.99,82.88-87.3,23.57-36.83,36.83-73.3,39.78-109.41v-16.58Zm173.5,224.34v-17.68c-5.16-38.3-18.42-74.04-39.78-107.2-27.26-45.67-61.16-78.83-101.67-99.46,0,8.11,.36,14.37,1.11,18.79,2.94,35.36,15.84,71.1,38.68,107.2,23.57,38.32,51.2,67.41,82.88,87.3,8.84,5.9,15.1,9.58,18.79,11.05Z"/>
</svg>