<?xml version="1.0" encoding="UTF-8"?>
<svg id="Layer_1" data-name="Layer 1" xmlns="http://www.w3.org/2000/svg" viewBox="0 0 566.93 566.93">
  <defs>
    <style>
      .cls-1 {
        fill: #231f20;
      }
    </style>
  </defs>
  <path class="cls-1" d="M141.46,280.62L0,131.42v-28.73L141.46,251.88,282.91,110.43l142.56,141.46,141.46-149.19v28.73l-140.35,149.19-143.67-141.46-141.46,141.46Zm285.12,141.46l-143.67-141.46-142.56,140.35L0,272.88v-28.73l141.46,148.09,141.46-140.35,142.56,141.46,141.46-149.19v28.73l-140.35,149.19ZM170.19,138.05c5.15-13.26,14.37-17.31,27.63-12.16,12.52,5.16,16.94,14.37,13.26,27.63-5.16,13.26-14.37,17.32-27.63,12.16-12.53-5.15-16.95-14.37-13.26-27.63Zm58.57,263.02c4.42-13.99,13.26-18.41,26.52-13.26,12.52,5.16,16.94,14.37,13.26,27.63-5.16,13.26-14.37,17.32-27.63,12.16-13.26-4.42-17.32-13.26-12.16-26.52Zm33.15,39.78c.73-5.15,3.32-9.76,7.74-13.81,4.42-4.04,9.57-5.7,15.47-4.97,5.89,.74,10.86,3.32,14.92,7.74,4.04,4.42,5.7,9.58,4.97,15.47-.74,5.16-3.32,9.77-7.74,13.81-4.42,4.06-9.58,5.71-15.47,4.97-5.9-.73-10.88-3.32-14.92-7.74-4.06-4.42-5.71-9.57-4.97-15.47Zm36.47-39.78c5.89-13.99,15.1-18.41,27.63-13.26,13.26,5.16,17.31,14.37,12.16,27.63-4.42,13.26-13.26,17.32-26.52,12.16-14-4.42-18.42-13.26-13.26-26.52Zm55.26-263.02c5.15-13.26,14.37-17.31,27.63-12.16,13.26,5.16,17.31,14.37,12.16,27.63-1.48,5.16-4.97,9.03-10.5,11.6-5.53,2.59-11.24,2.76-17.13,.55-11.79-5.15-15.85-14.37-12.16-27.63Z"/>
</svg>